/* XPM */
static char *_d6fc56f497e48faecec5ece1f010157[] = {
/* columns rows colors chars-per-pixel */
"80 80 38 1 ",
"  c #1671BB",
". c #1C74BC",
"X c #2077BD",
"o c #2579BF",
"O c #287BBF",
"+ c #2B7DC1",
"@ c #2F80C2",
"# c #3382C3",
"$ c #3A86C5",
"% c #3D89C6",
"& c #418BC7",
"* c #458DC8",
"= c #488FC9",
"- c #4C91CA",
"; c #5396CC",
": c #5798CD",
"> c #5B9ACF",
", c #5F9DD0",
"< c #619ED0",
"1 c #66A1D2",
"2 c #6BA4D3",
"3 c #70A7D5",
"4 c #74AAD6",
"5 c #79ADD7",
"6 c #7BAED8",
"7 c #7EB0D9",
"8 c #83B3DB",
"9 c #89B7DC",
"0 c #8DB9DD",
"q c #92BCDF",
"w c #96BFE0",
"e c #97C0E0",
"r c #9CC2E2",
"t c #A2C6E3",
"y c #A6C9E5",
"u c #A9CAE6",
"i c #B4D1E9",
"p c None",
/* pixels */
"ppppppppppppppppppppppppppppppppp..............ppppppppppppppppppppppppppppppppp",
"pppppppppppppppppppppppppppppX.....................ppppppppppppppppppppppppppppp",
"pppppppppppppppppppppppppp............................pppppppppppppppppppppppppp",
"pppppppppppppppppppppppp.....................X..........pppppppppppppppppppppppp",
"pppppppppppppppppppppp....................................pppppppppppppppppppppp",
"pppppppppppppppppppp........................................pppppppppppppppppppp",
"pppppppppppppppppp41%=..............................X.........pppppppppppppppppp",
"ppppppppppppppppp+41@-O...............X........................ppppppppppppppppp",
"ppppppppppppppp..29.$e1:&........................................ppppppppppppppp",
"pppppppppppppp...O@#u;#$7##X......................................pppppppppppppp",
"ppppppppppppp......,,.498$3$............................X..........ppppppppppppp",
"pppppppppppp.......4><9$@979;:......................................pppppppppppp",
"ppppppppppp..........,:$r5$14u-<@X...............................X...ppppppppppp",
"pppppppppp..........@t&32o003>790-6+&oXX...........  ..... ...........pppppppppp",
"ppppppppp...........X-$r$87#390>q4u>88=q#4%-=$=#=$%%$&$*%&-&-=X........ppppppppp",
"pppppppp..............-4$9#89::t27<u:u:u1991t>y>r2q78e5r90r90qO.........pppppppp",
"pppppppp..........X...;384>9$3q:10248692y:i;i>i,u2t7qr8y0qyeeq+........Xpppppppp",
"ppppppp................X<$3>30-3e%w29;y-r<w2w2r1y3u4tr8uqeueye+..........ppppppp",
"pppppp.....X...........@r2r-8=38=e21762w29494988q5u4yqqy0rueye@...........pppppp",
"pppppp..................X-;,3<q;91:r=r<9<e:t,y2r79e7t9qt9rr0ew+...........pppppp",
"ppppp...................Xq5t>8-42,e:92291w1w2t2t4qq8r8et9rywtr#............ppppp",
"ppppp....................O->:33819146<w>r106704r4r09y9ry9yyrte+............ppppp",
"pppp......................97r19,4,5184829<w2978r5y0qt0rrwtrwtr#..X..........pppp",
"pppp......................O;<>13201w182-&$2-7<783q70q9er0wrwtr+.............pppp",
"ppp.......................Xq7r887342181< ....++++$$&==;;->:;::+ .............ppp",
"ppp........................@1,1,4,01w694+....  ......... .... .....X.........ppp",
"pp........X................+q60q5r488261#.....................................pp",
"pp...........X..............-743422462w4;....................................Xpp",
"pp..................X.......*684097r6w961.............................X.......pp",
"p...........................X08q959648642......................................p",
"p..X.........................,4645864w7w6+.....................................p",
"p............................:rr8er9w08w8#.....................................p",
"p............... +..........++q66976077w5$.....................................p",
"............................ +989w90e8wr9- .......  .  .. .. ...................",
"..............................qwrr0rr0re996242122<211<21,2111<+.......X.........",
"..............................38w98w07w080w9ww0rt0wtrwtrwrrerw# ................",
"..............................2qww9ww9rr0ywwtrwyuetyteutwyyttr#.................",
"........+ ................... >ttwryeetrwytwttwyyttyrrytwyyrtr#.....X...........",
"..............................;ww0wr0wrwwwwwwwwwrwrurtutwyyrtt#.............X...",
"..............................-ww9wwwrr0wywwttwttwrtwrtrwttwrw+.................",
"..............................-utwttrryrryrwuywyywyuwtytwuyttr#.................",
"......+.......................-ttwttwwyrryrwutwyywtywtytwyyrtw#.................",
"...... ...................... ;tr0wrwwrwwtwwrywyywyywyytwyyryr#.................",
"..............................>tt0rtwrywwywwytwyywyywtytwytwtr+.................",
"..............................2tyrrurwurrw<<<<,11<<2<<1<<1<<<<+.................",
"..............................6wtrwutwurr2 ........................X....X.......",
".............+................0qew0ew9rw0<......................................",
"p............ ...............+twrywrr0rt0>...................................X.p",
"p............................=uwqyw0yqwt0;.....................................p",
"p.......... .................8qt9ww8tw9y8*.....................................p",
"p..........+....X...........+w0ww9t89w8w6+................................X....p",
"pp..........................>w08w8ww8t9w9+....................................pp",
"pp.........................+t6t99w6u8wq96+ ........... .......................pp",
"pp.........................49w5w6q89q3w4<.............+.......................pp",
"ppp......................X-898888402w3t4- ...................................ppp",
"ppp......................+06w2w2t2w2w496+....................................ppp",
"pppp....................+t1t>t:t:t>t>t<4....................................pppp",
"pppp...................+9<w:q>9284281q<> +....... ..........................pppp",
"ppppp.................;;9>62426,8:01824:-+;$;$-&*-*-==--=;----+ ...........ppppp",
"ppppp.............. ++9329-w&w;54;w=y*y:t,t<y2t8qt9uwqttwuytyt+ . +........ppppp",
"pppppp............. 2q+u&48+y*20+y=83>w:t;t>w2w98t8wt9ttwttttw++..........pppppp",
"pppppp........... ;8+w<$9:-9-:9&53*w*8<281q<04804t6ww9twwttwtw+...........pppppp",
"ppppppp.........*-+9;:,;2-,4$52$w*<8$y*01446886w3t8qw9tw0ttwtw++.........ppppppp",
"pppppppp......#+20+,8+>9+>q+,0+66+y-<w+u=w<93q3t2t8wt8ttwtywtt+ ........pppppppp",
"pppppppp... ..94 -t++w: 20.-t+&t+>w+01;r$u=r>r,y2t70t9rwwrrwre#.........pppppppp",
"ppppppppp..+0=+#0=#$9=+:7$+0>+8<+0<#r$29%r*y-t>r1e69w8rrwyywtr#........ppppppppp",
"pppppppppp>$>#%>1++24+#8> ;w+$t%+r$=t+72;r%y=t>y2r99r8rt0rrwrr#.......pppppppppp",
"ppppppppppp&..47..:w..<w.+w< <w.;t+2w+r;1w=u=u:y2r90y9tywyyryt#......ppppppppppp",
"pppppppppppp +#+..$+..$+..&+.$$.$*.$&.;#$=@:+:$:%;-;:=::;>>;::+.....pppppppppppp",
"ppppppppppppp .....................................................ppppppppppppp",
"pppppppppppppp....................................................pppppppppppppp",
"ppppppppppppppp..................................................ppppppppppppppp",
"ppppppppppppppppp..............................................ppppppppppppppppp",
"pppppppppppppppppp................X...........................pppppppppppppppppp",
"pppppppppppppppppppp..+ ................................+...pppppppppppppppppppp",
"pppppppppppppppppppppp.................................. .pppppppppppppppppppppp",
"pppppppppppppppppppppppp................................pppppppppppppppppppppppp",
"pppppppppppppppppppppppppp............................pppppppppppppppppppppppppp",
"ppppppppppppppppppppppppppppp......................ppppppppppppppppppppppppppppp",
"ppppppppppppppppppppppppppppppppp.......X......ppppppppppppppppppppppppppppppppp"
};
