/* XPM */
static char *_a275f8d678c4bc2e4fc320968cf0a40[] = {
/* columns rows colors chars-per-pixel */
"32 32 163 2 ",
"   c #1872BB",
".  c #1A72BB",
"X  c #1A73BB",
"o  c #1A73BC",
"O  c #1B73BC",
"+  c #1B74BC",
"@  c #1C74BC",
"#  c #1D75BC",
"$  c #1E75BD",
"%  c #1F76BD",
"&  c #2076BD",
"*  c #2077BD",
"=  c #2177BD",
"-  c #2177BE",
";  c #2277BE",
":  c #2278BE",
">  c #2378BE",
",  c #267ABF",
"<  c #277BBF",
"1  c #2A7DC0",
"2  c #2B7DC0",
"3  c #2C7EC1",
"4  c #2D7EC1",
"5  c #2E7FC1",
"6  c #2F7FC2",
"7  c #2F80C2",
"8  c #3080C2",
"9  c #3281C2",
"0  c #3382C3",
"q  c #3483C3",
"w  c #3684C4",
"e  c #3784C4",
"r  c #3885C4",
"t  c #3986C4",
"y  c #3986C5",
"u  c #3A87C5",
"i  c #3B87C5",
"p  c #3C87C5",
"a  c #3E89C6",
"s  c #3F89C6",
"d  c #3F8AC6",
"f  c #408AC7",
"g  c #428BC7",
"h  c #448CC8",
"j  c #468EC8",
"k  c #468EC9",
"l  c #478EC9",
"z  c #498FC9",
"x  c #4A90CA",
"c  c #4B91CA",
"v  c #4C91CA",
"b  c #4C92CA",
"n  c #4D92CA",
"m  c #4E92CB",
"M  c #4E93CB",
"N  c #4F93CB",
"B  c #5195CC",
"V  c #5295CC",
"C  c #5496CC",
"Z  c #5497CD",
"A  c #5597CD",
"S  c #5798CD",
"D  c #5798CE",
"F  c #5899CE",
"G  c #5999CE",
"H  c #599ACE",
"J  c #5A9ACE",
"K  c #5B9ACF",
"L  c #5B9BCF",
"P  c #5D9CCF",
"I  c #5F9DD0",
"U  c #609ED0",
"Y  c #619ED0",
"T  c #619FD0",
"R  c #629FD1",
"E  c #63A0D1",
"W  c #64A0D1",
"Q  c #65A1D1",
"!  c #65A1D2",
"~  c #66A1D2",
"^  c #67A2D2",
"/  c #68A2D2",
"(  c #68A3D3",
")  c #69A3D3",
"_  c #6AA4D3",
"`  c #6BA4D3",
"'  c #6BA5D3",
"]  c #6CA5D3",
"[  c #6DA5D4",
"{  c #6DA6D4",
"}  c #6FA7D4",
"|  c #6FA7D5",
" . c #70A7D5",
".. c #70A8D5",
"X. c #71A8D5",
"o. c #72A8D5",
"O. c #72A9D5",
"+. c #72A9D6",
"@. c #73A9D6",
"#. c #73AAD6",
"$. c #74AAD6",
"%. c #75AAD6",
"&. c #76ABD7",
"*. c #77ACD7",
"=. c #79ADD8",
"-. c #7AADD8",
";. c #7AAED8",
":. c #7BAED8",
">. c #7CAFD8",
",. c #7DAFD8",
"<. c #7DAFD9",
"1. c #7DB0D9",
"2. c #7EB0D9",
"3. c #7FB0D9",
"4. c #7FB1D9",
"5. c #80B1D9",
"6. c #80B1DA",
"7. c #81B2DA",
"8. c #82B3DA",
"9. c #83B3DA",
"0. c #83B3DB",
"q. c #84B4DB",
"w. c #85B4DB",
"e. c #86B5DB",
"r. c #87B6DC",
"t. c #88B6DC",
"y. c #89B6DC",
"u. c #89B7DC",
"i. c #8DB9DD",
"p. c #8EBADE",
"a. c #8FBADE",
"s. c #8FBBDE",
"d. c #90BBDE",
"f. c #91BCDF",
"g. c #92BCDF",
"h. c #93BDDF",
"j. c #94BDDF",
"k. c #94BEDF",
"l. c #94BEE0",
"z. c #95BEE0",
"x. c #96BEE0",
"c. c #96BFE0",
"v. c #97BFE0",
"b. c #98C0E1",
"n. c #99C0E1",
"m. c #99C1E1",
"M. c #9AC1E1",
"N. c #9BC2E1",
"B. c #9BC2E2",
"V. c #9CC2E2",
"C. c #9CC3E2",
"Z. c #9DC3E2",
"A. c #9EC3E2",
"S. c #9EC4E2",
"D. c #9FC4E3",
"F. c #A0C5E3",
"G. c #A1C5E3",
"H. c #A1C6E3",
"J. c #A2C6E3",
"K. c #A2C6E4",
"L. c #A3C7E4",
"P. c #A4C7E4",
"I. c None",
/* pixels */
"I.I.I.I.I.I.I.I.I.I.I.I.@ @ @ @ @ @ @ @ I.I.I.I.I.I.I.I.I.I.I.I.",
"I.I.I.I.I.I.I.I.I.@ @ @ @ @ @ @ @ @ @ @ @ @ @ I.I.I.I.I.I.I.I.I.",
"I.I.I.I.I.I.I.A 0 @ @ @ @ @ @ @ @ @ @ @ @ @ @ @ @ I.I.I.I.I.I.I.",
"I.I.I.I.I.I.< n F z 1 @ @ @ @ @ @ @ @ @ @ @ @ O @ @ I.I.I.I.I.I.",
"I.I.I.I.I.@ O 0 F U ^ x 4 @ O O O @ O O O O . O @ @ @ I.I.I.I.I.",
"I.I.I.I.@ @ @ @ l U ( $.O.U N d y 0 6 0 7 6 0 0 4 @ @ @ I.I.I.I.",
"I.I.I.@ @ @ @ @ 1 F ^ [ $.:.:.>.>.>.>.6.6.r.p.l.:.& @ @ @ I.I.I.",
"I.I.@ @ @ @ @ @ + u ( _ [  .*.;.>.6.w.y.l.c.c.A.0.: @ @ @ @ I.I.",
"I.I.@ @ @ @ @ @ @ & H  .[  .*.*.;.0.r.p.k.c.b.H.0.& @ @ @ @ I.I.",
"I.@ @ @ @ @ @ @ @ + y O.*.O.*./ f n H E / O.;.>.^ : @ @ @ @ @ I.",
"I.@ @ @ @ @ @ @ @ @ & ^ ;.*.;.} 1 . @ @ @ & @ & @ @ @ @ @ @ @ I.",
"I.@ @ @ @ @ @ @ @ @ O N 0.,.0.0.p O @ @ @ @ @ @ @ @ @ @ @ @ @ I.",
"@ @ @ @ @ @ @ @ @ @ O y 0.e.e.y.n O . . . . . . @ @ @ @ @ @ @ @ ",
"@ @ @ @ @ @ @ @ @ @ O 1 0.p.p.d./ g d d d f d d y @ @ @ @ @ @ @ ",
"@ @ @ @ @ @ @ @ @ @ @ < ;.k.k.c.c.c.c.b.b.b.b.A.4.: @ @ @ @ @ @ ",
"@ @ @ @ @ @ @ @ @ @ @ @ *.b.v.b.A.b.A.F.H.H.H.K.e.: @ @ @ @ @ @ ",
"@ @ @ @ @ @ @ @ @ @ @ @ :.A.A.b.A.K.K.H.K.K.K.H.w.> @ @ @ @ @ @ ",
"@ @ @ @ @ @ @ @ @ @ @ & 4.S.b.A.p.>.0.>.4.0.4.0.[ & @ @ @ @ @ @ ",
"@ @ @ @ @ @ @ @ @ @ @ < y.b.b.A.[ & & & : : : : & @ @ @ @ @ @ @ ",
"@ @ @ @ @ @ @ @ @ @ . y c.b.k.b.I + @ @ @ @ @ @ @ @ @ @ @ @ @ @ ",
"I.@ @ @ @ @ @ @ @ @ @ U g.d.p.p.n O @ @ @ @ @ @ @ @ @ @ @ @ @ I.",
"I.@ @ @ @ @ @ @ @ @ r e.y.e.y.e.e O @ @ @ @ @ @ @ @ @ @ @ @ @ I.",
"I.@ @ @ @ @ @ @ . 4 } 4.>.>.0. .1 O O @ @ O O O @ @ @ @ @ @ @ I.",
"I.I.@ @ @ @ @ X 0 ^ O... . .*.( B A A F I U U ^ A & @ @ @ @ I.I.",
"I.I.@ @ @ O & d I ^ U ^ ^ / [ *.;.>.e.p.c.b.S.P.w.& @ @ @ @ I.I.",
"I.I.I.@ @ 0 x H H S L P U U / [ *.*.0.y.p.c.b.H.0.< @ @ @ I.I.I.",
"I.I.I.I.y l N n n A B S P U U / [ *.4.e.p.k.b.H.0.< . @ I.I.I.I.",
"I.I.I.I.I.1 1 4 < 4 7 4 0 0 y y p p f l x n N B h @ @ I.I.I.I.I.",
"I.I.I.I.I.I.@ O + O O O O O O O @ O O . . X X X + @ I.I.I.I.I.I.",
"I.I.I.I.I.I.I.@ @ @ @ @ @ @ @ @ @ @ @ O @ @ @ @ @ I.I.I.I.I.I.I.",
"I.I.I.I.I.I.I.I.I.@ @ @ @ @ @ @ @ @ @ @ @ @ @ I.I.I.I.I.I.I.I.I.",
"I.I.I.I.I.I.I.I.I.I.I.I.@ @ @ @ @ @ @ @ I.I.I.I.I.I.I.I.I.I.I.I."
};
